<svg width="512" height="512" viewBox="0 0 512 512" fill="none" xmlns="http://www.w3.org/2000/svg">
<rect width="512" height="512" rx="150" fill="#2F84E7"/>
<path fill-rule="evenodd" clip-rule="evenodd" d="M188.235 154.241L257.097 109.176L407.529 209.841V404.119H103.529V209.673L137.412 187.5V123.648H188.235V154.241ZM356.706 236.985L256.785 170.12L154.353 237.153V353.295H356.706V236.985Z" fill="white"/>
<path fill-rule="evenodd" clip-rule="evenodd" d="M258.857 234.363V231.884H253.796V234.363V239.897L246.74 235.406L244.618 234.056L241.861 238.214L243.983 239.564L253.796 245.81V257.291L248.511 253.252L244.424 250.129V255.207V262.25L236.365 257.588V246.484V244.005H231.304V246.484V254.661L224.905 250.96L222.726 249.7L220.154 253.97L222.333 255.23L228.549 258.826L219.674 263.183L217.412 264.293L219.679 268.726L221.941 267.616L233.735 261.825L241.788 266.483L235.924 269.547L231.601 271.806L235.983 273.952L241.979 276.89L232.678 282.35L223.152 276.102L221.05 274.723L218.234 278.844L220.337 280.223L227.877 285.168L222.318 288.432L220.148 289.706L222.749 293.959L224.92 292.685L230.554 289.377V298.639V301.118H235.615V298.639V286.406L244.581 281.142L244.425 286.726L244.304 291.09L248.191 288.957L253.796 285.882V296.282L242.292 303.633L240.173 304.987L242.937 309.14L245.057 307.786L253.796 302.201V308.464V310.943H258.857V308.464V301.552L267.539 306.395L269.738 307.621L272.242 303.312L270.043 302.085L258.857 295.847V286.178L265.086 290.077L268.978 292.513V287.987V280.956L276.932 285.389V297.261V299.741H281.993V297.261V288.563L286.981 291.799L289.091 293.168L291.885 289.034L289.775 287.665L284.565 284.284L292.197 280.67L294.475 279.591L292.273 275.127L289.995 276.206L279.558 281.148L271.567 276.694L276.602 273.89L280.402 271.774L276.636 269.599L271.276 266.504L280.326 260.815L289.74 266.666L291.877 267.994L294.588 263.807L292.451 262.479L285.411 258.104L289.532 256.036L291.784 254.906L289.477 250.493L287.225 251.623L282.849 253.819V245.657V243.178H277.788V245.657V256.519L269.297 261.857L269.817 253.99L270.185 248.409L265.717 251.889L258.857 257.231V245.751L267.904 239.513L269.974 238.086L267.061 234.031L264.992 235.458L258.857 239.688V234.363ZM257.901 264.31L264.398 259.25L263.923 266.433L263.822 267.954L265.163 268.729L270.301 271.696L265.198 274.538L263.918 275.251V276.693V283.462L257.689 279.563L256.412 278.763L255.09 279.489L249.606 282.498L249.765 276.761L249.809 275.182L248.368 274.476L242.627 271.664L248.146 268.78L249.485 268.08V266.593V260.285L254.77 264.324L256.341 265.525L257.901 264.31Z" fill="white"/>
</svg>
